<?xml version="1.0" encoding="UTF-8"?>
<svg version="1.1" xmlns="http://www.w3.org/2000/svg" width="1024" height="1024">
<path d="M0 0 C337.92 0 675.84 0 1024 0 C1024 337.92 1024 675.84 1024 1024 C686.08 1024 348.16 1024 0 1024 C0 686.08 0 348.16 0 0 Z " fill="#B3325B" transform="translate(0,0)"/>
<path d="M0 0 C1.820011 1.25694709 3.64030961 2.51347787 5.4609375 3.76953125 C14.7588995 10.21049907 23.93731689 16.8061932 33.02490234 23.54003906 C35.1957948 25.14472842 37.37284781 26.7408185 39.55078125 28.3359375 C55.05883571 39.70355343 70.32758724 51.30590088 85.18701172 63.51171875 C86.92512451 64.93853475 88.66683553 66.36080436 90.41015625 67.78125 C97.84090909 73.84090909 97.84090909 73.84090909 99 75 C101.49732202 75.12432634 103.96803633 75.18344007 106.46696472 75.20100403 C107.25831749 75.21032524 108.04967025 75.21964646 108.86500341 75.22925013 C111.53782308 75.25918244 114.21065136 75.28165783 116.88354492 75.30395508 C118.79198985 75.32330391 120.700432 75.34292803 122.60887146 75.36280823 C140.07954265 75.53663041 157.55109347 75.62986734 175.02244091 75.70387745 C187.93378015 75.75970688 200.84361533 75.85427779 213.75426406 75.99953538 C222.83380005 76.09823976 231.91292428 76.15065488 240.9929722 76.16973227 C246.41347509 76.18247315 251.83203298 76.21563854 257.25194359 76.29932594 C262.36211742 76.37739368 267.4694121 76.39777587 272.58010292 76.37558556 C274.44654048 76.37727808 276.31309784 76.39922526 278.17900085 76.44392395 C288.16569901 76.67073634 295.14701143 76.14611764 302.78926086 69.25761414 C304.37462091 67.7162737 305.91741686 66.14556244 307.44394457 64.54604566 C310.06805379 61.93881677 312.99790728 59.73652779 315.9375 57.5 C317.10351662 56.59589238 318.26895652 55.69104005 319.43359375 54.78515625 C320.01737793 54.33156738 320.60116211 53.87797852 321.20263672 53.41064453 C323.69259871 51.45642009 326.14856906 49.46132669 328.60766602 47.46850586 C335.07781268 42.23378908 341.67812068 37.27198646 348.484375 32.484375 C352.1093774 29.93434544 355.68196484 27.31640493 359.25 24.6875 C424.79838261 -23.48218388 424.79838261 -23.48218388 445 -22 C453.57022568 -20.37934835 460.24601806 -15.84838039 465.25 -8.75 C479.42019402 12.75535327 479.0147584 42.82333107 480.3034668 67.59033203 C480.34255157 68.33139191 480.38163635 69.07245178 480.42190552 69.83596802 C480.52833715 71.86969839 480.6315871 73.90359456 480.73461914 75.9375 C480.89769433 78.79984345 481.17730691 81.62998994 481.50170898 84.47827148 C482.17398446 90.98961253 482.25020733 97.51758595 482.38623047 104.05699348 C482.49395972 108.87021056 482.64580091 113.6823013 482.78927612 118.4945612 C482.91188252 122.68884088 483.01943329 126.88245678 483.09423828 131.07788086 C482.84404887 155.10369245 482.84404887 155.10369245 491.77197266 176.8046875 C503.28713097 193.31908504 503.4551858 215.49880086 503.37231445 234.80737305 C503.3747494 236.82507514 503.37847548 238.84277602 503.38337708 240.86047363 C503.39269171 246.28386157 503.38344181 251.70706605 503.37004495 257.13043952 C503.35863018 262.83686289 503.36284552 268.54327855 503.36479187 274.24971008 C503.36567149 283.82446243 503.35466252 293.39914353 503.33618164 302.97387695 C503.31500104 314.00981072 503.31151006 325.04564037 503.3177436 336.08159035 C503.32345676 346.74642719 503.31776981 357.41122774 503.30657005 368.07605934 C503.30195172 372.5936024 503.30103811 377.11112307 503.3031559 381.62866783 C503.30505274 386.95501029 503.29682863 392.28124821 503.2810955 397.60756683 C503.27688813 399.55085886 503.27597788 401.49416157 503.27878571 403.43745613 C503.29670333 418.06761403 502.68961584 432.13342163 498.1875 446.1875 C497.92106689 447.03916748 497.65463379 447.89083496 497.38012695 448.76831055 C490.54726137 470.22583439 479.22994158 486.57063078 464 503 C463.46117187 503.60457031 462.92234375 504.20914063 462.3671875 504.83203125 C450.60229643 517.45416313 433.66673932 526.73916078 417.6875 532.8125 C416.66039917 533.21118286 416.66039917 533.21118286 415.61254883 533.61791992 C398.42593906 539.78772081 381.57018148 540.55532852 363.50170898 540.40307617 C360.99299997 540.39706298 358.48428578 540.3929572 355.97557068 540.39059448 C350.61248185 540.38227503 345.24962529 540.36247628 339.88662529 540.33302879 C331.40129129 540.28732911 322.91611935 540.28027669 314.43067932 540.27839661 C311.51637538 540.27724136 308.60207169 540.27576511 305.68776798 540.27413654 C304.95992612 540.27372984 304.23208425 540.27332313 303.48218657 540.27290409 C295.23509885 540.26759499 286.98803564 540.25261194 278.7409668 540.23461914 C277.98873705 540.23298696 277.2365073 540.23135477 276.46148271 540.22967312 C264.24117553 540.20241422 252.02099566 540.15506421 239.80076884 540.10397228 C227.21399383 540.05223176 214.6274602 540.03518918 202.0405851 540.04685193 C194.29626652 540.05267481 186.55310505 540.02976699 178.80901546 539.96926121 C172.87994842 539.92552235 166.95148492 539.92858886 161.02227211 539.94880295 C158.59628589 539.94955815 156.17023758 539.93492868 153.74445343 539.90360832 C139.16164664 539.1763649 139.16164664 539.1763649 126.65931702 545.38935852 C124.62860739 547.71508403 124.62860739 547.71508403 123 550 C122.05694118 550.95803798 121.09873298 551.90174558 120.1171875 552.8203125 C119.37726563 553.58085938 118.63734375 554.34140625 117.875 555.125 C114.43731477 558.65784607 110.8396454 561.90847196 107.11914062 565.13476562 C103.60104521 568.23133809 100.21176554 571.46171476 96.8125 574.6875 C91.61764455 579.60119938 86.40092879 584.48599623 81.125 589.3125 C77.04404484 593.05075068 73.07713573 596.87565996 69.1875 600.8125 C65.65543388 604.38014089 62.07375753 607.7810561 58.25 611.03125 C56.35855463 612.6862647 54.51893902 614.373432 52.6875 616.09375 C52.10081543 616.64361572 51.51413086 617.19348145 50.90966797 617.76000977 C49.7330934 618.86592548 48.56014367 619.97571216 47.39111328 621.08959961 C43.22076758 625 43.22076758 625 41 625 C41 625.66 41 626.32 41 627 C31.2436056 632.56778529 22.32702101 635.84460328 11.1328125 632.85546875 C4.93405352 630.36915333 -0.06290824 625.98296471 -3 620 C-5.70106598 611.16006355 -6.45441825 602.49739438 -6.53475571 593.30907822 C-6.55522371 591.12240223 -6.59534205 588.93681906 -6.64041138 586.7505188 C-6.76524356 580.54659846 -6.85797823 574.3424059 -6.93310547 568.13769531 C-6.98071307 564.31609961 -7.05209315 560.49554083 -7.13806534 556.6746254 C-7.16569478 555.22588898 -7.18397264 553.77694245 -7.19265366 552.3279686 C-7.2049755 550.31327599 -7.24990664 548.29886203 -7.29638672 546.28466797 C-7.31176483 545.14029266 -7.32714294 543.99591736 -7.34298706 542.81686401 C-7.73099763 539.81688581 -7.73099763 539.81688581 -10.3298645 538.18997192 C-13.60428287 536.73069545 -16.93134137 535.49437652 -20.3125 534.3125 C-38.96321217 527.49988706 -54.64805505 517.74911689 -69 504 C-69.87011719 503.20464844 -70.74023438 502.40929687 -71.63671875 501.58984375 C-88.80571705 485.35154721 -100.45116514 463.91616086 -106 441 C-106.24673556 440.02166986 -106.49347113 439.04333971 -106.74768353 438.0353632 C-109.26047507 427.00142321 -109.4192165 416.3377273 -109.37231445 405.05834961 C-109.37474763 402.99020709 -109.37847203 400.92206575 -109.38337708 398.85392761 C-109.39271708 393.2796096 -109.38341927 387.7054693 -109.37004495 382.13116527 C-109.35865607 376.2734431 -109.36284363 370.41572873 -109.36479187 364.55799866 C-109.36567244 354.72572965 -109.35464366 344.89352991 -109.33618164 335.0612793 C-109.31501185 323.72262517 -109.31150688 312.38407236 -109.3177436 301.04540247 C-109.3234543 290.09918449 -109.31777189 279.15300189 -109.30657005 268.20678902 C-109.30194724 263.5656118 -109.30104011 258.92445639 -109.3031559 254.28327751 C-109.30505088 248.8108809 -109.29684258 243.33858622 -109.2810955 237.86621284 C-109.27688288 235.86767626 -109.27598152 233.86912927 -109.27878571 231.87059021 C-109.30561971 209.3102795 -105.59823761 190.94400915 -94.99560547 170.91186523 C-94.50278076 169.96549194 -94.50278076 169.96549194 -94 169 C-93.21447754 167.61518433 -93.21447754 167.61518433 -92.41308594 166.20239258 C-90.83638578 162.62921083 -90.58980147 160.09324044 -90.5234375 156.203125 C-90.4925 154.9140625 -90.4615625 153.625 -90.4296875 152.296875 C-90.4107526 150.94792639 -90.39252749 149.59896763 -90.375 148.25 C-90.32619164 145.60921086 -90.26879973 142.96874663 -90.2109375 140.328125 C-90.19337402 139.1618457 -90.17581055 137.99556641 -90.15771484 136.79394531 C-90.03889006 133.9355287 -89.82349894 131.17652465 -89.51269531 128.33886719 C-88.87788058 122.31634616 -88.74715922 116.30056269 -88.5859375 110.25 C-88.14906777 96.3833842 -87.15774292 82.59785558 -85.953125 68.77880859 C-85.62277826 64.97441366 -85.30685478 61.16900179 -84.9921875 57.36328125 C-84.07051095 46.44852794 -83.08410902 35.56123014 -81.48046875 24.72265625 C-81.36696075 23.95183716 -81.25345276 23.18101807 -81.13650513 22.38684082 C-78.81671599 7.69913091 -74.2483214 -7.72386526 -62.34375 -17.40625 C-40.77902174 -32.07026522 -17.30613748 -12.06689762 0 0 Z " fill="#FCC335" transform="translate(315,197)"/>
<path d="M0 0 C17.14010903 13.3986103 25.05961254 30.82921029 28 52 C29.28687559 72.93647588 24.35295856 92.91710102 10.6796875 109.15234375 C-0.35759992 120.8814728 -15.41860031 127.67174401 -31.4375 128.3125 C-48.08462459 128.14706274 -62.3149436 120.95536037 -74.28125 109.890625 C-87.86152174 96.03130658 -93.30247943 77.43959564 -93.5 58.4375 C-93.30586916 39.78577334 -87.43205428 21.53726782 -74.1328125 8.03515625 C-73.42898438 7.36355469 -72.72515625 6.69195312 -72 6 C-71.46117187 5.44183594 -70.92234375 4.88367188 -70.3671875 4.30859375 C-51.65473896 -13.69861175 -20.82094852 -14.50375671 0 0 Z " fill="#202021" transform="translate(416,434)"/>
<path d="M0 0 C3.54114319 2.81101058 6.7961713 5.81265755 10 9 C10.63808594 9.60328125 11.27617188 10.2065625 11.93359375 10.828125 C24.80238582 24.01218815 28.41456378 44.46719737 28.20703125 62.1640625 C27.16546636 81.46249119 20.31920345 98.72854314 6 112 C5.42765625 112.55429687 4.8553125 113.10859375 4.265625 113.6796875 C-0.6935173 118.30160813 -5.7362595 121.42081274 -12 124 C-13.14275391 124.48146484 -13.14275391 124.48146484 -14.30859375 124.97265625 C-27.13626988 129.38537684 -43.57307858 128.81708475 -56.01171875 123.55859375 C-62.84653281 119.99376916 -68.82142767 115.73841798 -74 110 C-74.52980469 109.4740625 -75.05960938 108.948125 -75.60546875 108.40625 C-88.65622227 94.80811388 -92.31501436 77.00459074 -92.4375 58.8125 C-92.44773193 57.63671387 -92.45796387 56.46092773 -92.46850586 55.24951172 C-92.28527503 36.98536999 -85.9450792 20.22374666 -73.4375 6.8125 C-53.41326962 -12.35703762 -23.25477902 -16.01206922 0 0 Z " fill="#202021" transform="translate(672,434)"/>
<path d="M0 0 C1.74796875 -0.02126953 1.74796875 -0.02126953 3.53125 -0.04296875 C6.5 0.1875 6.5 0.1875 8.5 2.1875 C5.27602808 3.26215731 2.82529214 3.35441803 -0.5625 3.375 C-1.62597656 3.38917969 -2.68945312 3.40335938 -3.78515625 3.41796875 C-6.5 3.1875 -6.5 3.1875 -8.5 1.1875 C-5.65161879 -0.2366906 -3.17212092 0.01754492 0 0 Z " fill="#322A21" transform="translate(384.5,558.8125)"/>
<path d="M0 0 C0.66 0.33 1.32 0.66 2 1 C-1.75 4 -1.75 4 -4 4 C-4.66 5.32 -5.32 6.64 -6 8 C-7.32 8 -8.64 8 -10 8 C-10 7.34 -10 6.68 -10 6 C-7.8828125 4.45703125 -7.8828125 4.45703125 -5.125 2.8125 C-4.22007812 2.26207031 -3.31515625 1.71164062 -2.3828125 1.14453125 C-1.20332031 0.57798828 -1.20332031 0.57798828 0 0 Z " fill="#14141F" transform="translate(614,430)"/>
<path d="M0 0 C0.99 0.33 1.98 0.66 3 1 C0.89381685 3.94865641 -1.39391727 6.4837822 -4 9 C-3.35455571 5.51460083 -1.89865603 2.97180943 0 0 Z " fill="#13121D" transform="translate(591,451)"/>
<path d="M0 0 C1.32 0.66 2.64 1.32 4 2 C3.401875 2.268125 2.80375 2.53625 2.1875 2.8125 C0.02775192 3.98493467 -1.35790256 5.19369282 -3 7 C-1.125 1.125 -1.125 1.125 0 0 Z " fill="#FCD130" transform="translate(245,188)"/>
</svg>
